<?xml version="1.0" encoding="UTF-8" standalone="no"?>
<!-- Created with Inkscape (http://www.inkscape.org/) -->

<svg
   xmlns:dc="http://purl.org/dc/elements/1.1/"
   xmlns:cc="http://creativecommons.org/ns#"
   xmlns:rdf="http://www.w3.org/1999/02/22-rdf-syntax-ns#"
   xmlns:svg="http://www.w3.org/2000/svg"
   xmlns="http://www.w3.org/2000/svg"
   xmlns:sodipodi="http://sodipodi.sourceforge.net/DTD/sodipodi-0.dtd"
   xmlns:inkscape="http://www.inkscape.org/namespaces/inkscape"
   width="210mm"
   height="297mm"
   viewBox="0 0 744.09448819 1052.3622047"
   id="svg2"
   version="1.1"
   inkscape:version="0.91 r13725"
   inkscape:export-filename="C:\Users\timot_000\Documents\GitHub\rps\rpsimg\nohtml5.png"
   inkscape:export-xdpi="90"
   inkscape:export-ydpi="90"
   sodipodi:docname="canvasrenderimg.svg">
  <defs
     id="defs4">
    <marker
       inkscape:isstock="true"
       style="overflow:visible"
       id="marker7921"
       refX="0.0"
       refY="0.0"
       orient="auto"
       inkscape:stockid="TriangleOutS">
      <path
         transform="scale(0.2)"
         style="fill-rule:evenodd;stroke:#aaaaaa;stroke-width:1pt;stroke-opacity:1;fill:#aaaaaa;fill-opacity:1"
         d="M 5.77,0.0 L -2.88,5.0 L -2.88,-5.0 L 5.77,0.0 z "
         id="path7923" />
    </marker>
    <marker
       inkscape:stockid="TriangleOutS"
       orient="auto"
       refY="0.0"
       refX="0.0"
       id="marker7401"
       style="overflow:visible"
       inkscape:isstock="true"
       inkscape:collect="always">
      <path
         id="path7403"
         d="M 5.77,0.0 L -2.88,5.0 L -2.88,-5.0 L 5.77,0.0 z "
         style="fill-rule:evenodd;stroke:#aaaaaa;stroke-width:1pt;stroke-opacity:1;fill:#aaaaaa;fill-opacity:1"
         transform="scale(0.2)" />
    </marker>
    <marker
       inkscape:stockid="EmptyTriangleOutM"
       orient="auto"
       refY="0.0"
       refX="0.0"
       id="EmptyTriangleOutM"
       style="overflow:visible"
       inkscape:isstock="true">
      <path
         id="path4712"
         d="M 5.77,0.0 L -2.88,5.0 L -2.88,-5.0 L 5.77,0.0 z "
         style="fill-rule:evenodd;fill:#ffffff;stroke:#000000;stroke-width:1pt;stroke-opacity:1"
         transform="scale(0.4) translate(-4.5,0)" />
    </marker>
    <marker
       inkscape:stockid="TriangleOutM"
       orient="auto"
       refY="0.0"
       refX="0.0"
       id="TriangleOutM"
       style="overflow:visible"
       inkscape:isstock="true">
      <path
         id="path4694"
         d="M 5.77,0.0 L -2.88,5.0 L -2.88,-5.0 L 5.77,0.0 z "
         style="fill-rule:evenodd;stroke:#000000;stroke-width:1pt;stroke-opacity:1;fill:#000000;fill-opacity:1"
         transform="scale(0.4)" />
    </marker>
    <marker
       inkscape:stockid="TriangleOutS"
       orient="auto"
       refY="0.0"
       refX="0.0"
       id="marker6413"
       style="overflow:visible"
       inkscape:isstock="true">
      <path
         id="path6415"
         d="M 5.77,0.0 L -2.88,5.0 L -2.88,-5.0 L 5.77,0.0 z "
         style="fill-rule:evenodd;stroke:#000000;stroke-width:1pt;stroke-opacity:1;fill:#000000;fill-opacity:1"
         transform="scale(0.2)" />
    </marker>
    <marker
       inkscape:stockid="TriangleOutS"
       orient="auto"
       refY="0.0"
       refX="0.0"
       id="TriangleOutS"
       style="overflow:visible"
       inkscape:isstock="true">
      <path
         id="path4697"
         d="M 5.77,0.0 L -2.88,5.0 L -2.88,-5.0 L 5.77,0.0 z "
         style="fill-rule:evenodd;stroke:#000000;stroke-width:1.0pt"
         transform="scale(0.2)" />
    </marker>
  </defs>
  <sodipodi:namedview
     id="base"
     pagecolor="#ffffff"
     bordercolor="#666666"
     borderopacity="1.0"
     inkscape:pageopacity="0.0"
     inkscape:pageshadow="2"
     inkscape:zoom="11.2"
     inkscape:cx="181.92821"
     inkscape:cy="456.85838"
     inkscape:document-units="px"
     inkscape:current-layer="layer1"
     showgrid="false"
     inkscape:window-width="1920"
     inkscape:window-height="1057"
     inkscape:window-x="1592"
     inkscape:window-y="-8"
     inkscape:window-maximized="1" />
  <metadata
     id="metadata7">
    <rdf:RDF>
      <cc:Work
         rdf:about="">
        <dc:format>image/svg+xml</dc:format>
        <dc:type
           rdf:resource="http://purl.org/dc/dcmitype/StillImage" />
        <dc:title></dc:title>
      </cc:Work>
    </rdf:RDF>
  </metadata>
  <g
     inkscape:label="Laag 1"
     inkscape:groupmode="layer"
     id="layer1">
    <rect
       style="opacity:0.99299999;fill:none;fill-opacity:1;fill-rule:nonzero;stroke:#757575;stroke-width:5;stroke-linecap:round;stroke-linejoin:miter;stroke-miterlimit:4;stroke-dasharray:5, 5;stroke-dashoffset:0;stroke-opacity:1"
       id="rect4136"
       width="275.71429"
       height="162.85715"
       x="140"
       y="192.3622" />
    <flowRoot
       xml:space="preserve"
       id="flowRoot4138"
       style="font-style:normal;font-weight:normal;font-size:40px;line-height:125%;font-family:Sans;letter-spacing:0px;word-spacing:0px;fill:#4d4d4d;fill-opacity:1;stroke:none;stroke-width:1px;stroke-linecap:butt;stroke-linejoin:miter;stroke-opacity:1;"
       transform="translate(-19.264688,-5.4488765)"><flowRegion
         id="flowRegion4140"><rect
           id="rect4142"
           width="267.14285"
           height="204.28572"
           x="160"
           y="210.93364"
           style="fill:#4d4d4d;" /></flowRegion><flowPara
         id="flowPara4148"
         style="font-size:35px;text-align:center;text-anchor:middle;fill:#4d4d4d;">Need HTML5</flowPara><flowPara
         style="font-size:35px;text-align:center;text-anchor:middle;fill:#4d4d4d;"
         id="flowPara4162">-or</flowPara><flowPara
         id="flowPara4146"
         style="font-size:35px;text-align:center;text-anchor:middle;fill:#4d4d4d;">Push Simulate</flowPara></flowRoot>    <flowRoot
       xml:space="preserve"
       id="flowRoot4150"
       style="fill:black;stroke:none;stroke-opacity:1;stroke-width:1px;stroke-linejoin:miter;stroke-linecap:butt;fill-opacity:1;font-family:Sans;font-style:normal;font-weight:normal;font-size:40px;line-height:125%;letter-spacing:0px;word-spacing:0px"><flowRegion
         id="flowRegion4152"><rect
           id="rect4154"
           width="22.223356"
           height="86.873116"
           x="151.52289"
           y="248.28078" /></flowRegion><flowPara
         id="flowPara4156"></flowPara></flowRoot>    <path
       style="opacity:0.99299999;fill:#272727;fill-opacity:1;fill-rule:nonzero;stroke:none;stroke-width:5;stroke-linecap:round;stroke-linejoin:miter;stroke-miterlimit:4;stroke-dasharray:5, 5;stroke-dashoffset:0;stroke-opacity:1"
       d="M 297.76758 557.36133 A 17.767857 18.392857 0 0 0 280.07617 574.14844 L 279.91016 574.14844 L 279.91016 603.61133 L 280.01953 603.61133 A 17.767857 5.8928571 0 0 0 297.76758 609.32617 A 17.767857 5.8928571 0 0 0 315.50781 603.61133 L 315.625 603.61133 L 315.625 574.14844 L 315.45508 574.14844 A 17.767857 18.392857 0 0 0 297.76758 557.36133 z M 297.87891 560.36328 A 13.363772 15.890428 0 0 1 311.08984 573.96875 L 284.66992 573.96875 A 13.363772 15.890428 0 0 1 297.87891 560.36328 z M 297.76562 580.04102 A 7.2321429 6.3392859 0 0 1 305 586.38086 A 7.2321429 6.3392859 0 0 1 300.53711 592.23047 L 300.53711 602.36133 L 295 602.36133 L 295 592.23438 A 7.2321429 6.3392859 0 0 1 290.53711 586.38086 A 7.2321429 6.3392859 0 0 1 297.76562 580.04102 z "
       id="path4512" />
    <ellipse
       style="opacity:0.99299999;fill:#272727;fill-opacity:1;fill-rule:nonzero;stroke:none;stroke-width:5;stroke-linecap:round;stroke-linejoin:miter;stroke-miterlimit:4;stroke-dasharray:5, 5;stroke-dashoffset:0;stroke-opacity:1"
       id="ellipse4519"
       cx="365.44641"
       cy="567.14783"
       rx="17.767857"
       ry="5.8928571" />
    <ellipse
       style="opacity:0.99299999;fill:#272727;fill-opacity:1;fill-rule:nonzero;stroke:none;stroke-width:5;stroke-linecap:round;stroke-linejoin:miter;stroke-miterlimit:4;stroke-dasharray:5, 5;stroke-dashoffset:0;stroke-opacity:1"
       id="ellipse4524"
       cx="358.66074"
       cy="605.18359"
       rx="17.767857"
       ry="18.392857" />
    <path
       style="opacity:0.99299999;fill:#efefef;fill-opacity:1;fill-rule:nonzero;stroke:none;stroke-width:5;stroke-linecap:round;stroke-linejoin:miter;stroke-miterlimit:4;stroke-dasharray:5, 5;stroke-dashoffset:0;stroke-opacity:1"
       d="M 206.22266 578.69922 A 5.4870617 5.3877849 0 0 0 200.75977 583.61719 L 200.70703 583.61719 L 200.70703 592.24805 L 200.74219 592.24805 A 5.4870617 1.7261834 0 0 0 206.22266 593.92188 A 5.4870617 1.7261834 0 0 0 211.70117 592.24805 L 211.73633 592.24805 L 211.73633 583.61719 L 211.68555 583.61719 A 5.4870617 5.3877849 0 0 0 206.22266 578.69922 z M 206.25781 579.57812 A 4.1269941 4.6547531 0 0 1 210.33594 583.56445 L 202.17773 583.56445 A 4.1269941 4.6547531 0 0 1 206.25781 579.57812 z M 211.70508 583.79102 A 5.4870617 1.7261834 0 0 1 211.70898 583.81445 A 5.4870617 1.7261834 0 0 1 211.70508 583.83984 L 211.70508 583.79102 z M 206.22266 585.34375 A 2.2334271 1.8569551 0 0 1 208.45508 587.19922 A 2.2334271 1.8569551 0 0 1 207.07812 588.91406 L 207.07812 591.88086 L 205.36719 591.88086 L 205.36719 588.91406 A 2.2334271 1.8569551 0 0 1 203.99023 587.19922 A 2.2334271 1.8569551 0 0 1 206.22266 585.34375 z "
       id="path4539"
       inkscape:export-xdpi="90"
       inkscape:export-ydpi="90" />
    <rect
       style="opacity:0.99299999;fill:#cecece;fill-opacity:1;fill-rule:nonzero;stroke:none;stroke-width:5;stroke-linecap:butt;stroke-linejoin:miter;stroke-miterlimit:4;stroke-dasharray:5, 5;stroke-dashoffset:0;stroke-opacity:1"
       id="rect6051"
       width="17.053572"
       height="3.5714285"
       x="252.85715"
       y="546.29077" />
    <rect
       y="550.29077"
       x="252.85715"
       height="3.5714285"
       width="17.053572"
       id="rect6055"
       style="opacity:0.99299999;fill:#cecece;fill-opacity:1;fill-rule:nonzero;stroke:none;stroke-width:5;stroke-linecap:butt;stroke-linejoin:miter;stroke-miterlimit:4;stroke-dasharray:5, 5;stroke-dashoffset:0;stroke-opacity:1" />
    <rect
       style="opacity:0.99299999;fill:#cecece;fill-opacity:1;fill-rule:nonzero;stroke:none;stroke-width:5;stroke-linecap:butt;stroke-linejoin:miter;stroke-miterlimit:4;stroke-dasharray:5, 5;stroke-dashoffset:0;stroke-opacity:1"
       id="rect6117"
       width="17.053572"
       height="3.5714285"
       x="252.85715"
       y="554.29077" />
    <rect
       y="-538.46368"
       x="251.78572"
       height="3.5714285"
       width="17.053572"
       id="rect6179"
       style="opacity:0.99299999;fill:#cecece;fill-opacity:1;fill-rule:nonzero;stroke:none;stroke-width:5;stroke-linecap:butt;stroke-linejoin:miter;stroke-miterlimit:4;stroke-dasharray:5, 5;stroke-dashoffset:0;stroke-opacity:1"
       transform="scale(1,-1)" />
    <rect
       transform="scale(1,-1)"
       style="opacity:0.99299999;fill:#cecece;fill-opacity:1;fill-rule:nonzero;stroke:none;stroke-width:5;stroke-linecap:butt;stroke-linejoin:miter;stroke-miterlimit:4;stroke-dasharray:5, 5;stroke-dashoffset:0;stroke-opacity:1"
       id="rect6253"
       width="17.053572"
       height="3.5714285"
       x="251.69644"
       y="-534.26727" />
    <path
       style="fill:none;fill-rule:evenodd;stroke:#aaaaaa;stroke-width:3.04969215;stroke-linecap:round;stroke-linejoin:round;stroke-miterlimit:4;stroke-dasharray:none;stroke-opacity:1;marker-end:url(#marker7401)"
       d="m 244.68086,550.47596 -10.40349,0 0,-7.86801"
       id="path6409"
       inkscape:connector-curvature="0"
       sodipodi:nodetypes="ccc"
       inkscape:export-xdpi="90"
       inkscape:export-ydpi="90" />
    <rect
       y="-529.89227"
       x="251.51787"
       height="3.5714285"
       width="17.053572"
       id="rect6411"
       style="opacity:0.99299999;fill:#cecece;fill-opacity:1;fill-rule:nonzero;stroke:none;stroke-width:5;stroke-linecap:butt;stroke-linejoin:miter;stroke-miterlimit:4;stroke-dasharray:5, 5;stroke-dashoffset:0;stroke-opacity:1"
       transform="scale(1,-1)" />
    <rect
       transform="scale(1,-1)"
       style="opacity:0.99299999;fill:#cecece;fill-opacity:1;fill-rule:nonzero;stroke:none;stroke-width:5;stroke-linecap:butt;stroke-linejoin:miter;stroke-miterlimit:4;stroke-dasharray:5, 5;stroke-dashoffset:0;stroke-opacity:1"
       id="rect6567"
       width="68.214287"
       height="3.5714285"
       x="245.62502"
       y="-524.98157" />
    <path
       sodipodi:nodetypes="ccc"
       inkscape:connector-curvature="0"
       id="path7919"
       d="m 244.68086,556.28043 -10.40349,0 0,7.86801"
       style="fill:none;fill-rule:evenodd;stroke:#aaaaaa;stroke-width:3.04969215;stroke-linecap:round;stroke-linejoin:round;stroke-miterlimit:4;stroke-dasharray:none;stroke-opacity:1;marker-end:url(#marker7921)"
       inkscape:export-xdpi="90"
       inkscape:export-ydpi="90" />
  </g>
</svg>
